# xmcd CD database file
#
# Track frame offsets:
#	150
#	20294
#	54372
#	74595
#	107143
#	129621
#	168596
#	192813
#	213456
#	243546
#
# Disc length: 3709 seconds
#
# Revision: 2
# Processed by: cddbd v1.5.1PL2 Copyright (c) Steve Scherf et al.
# Submitted via: CDex 1.51
#
DISCID=900e7b0a
DTITLE=Voces Del Milenio - Salsa Vol 2
DYEAR=2002
DGENRE=Salsa
TTITLE0=El-Toro  by Cano Estremera
TTITLE1=Quitate La Mascara by Adalberto Santiago
TTITLE2=Bailalo by Pupy Santiago
TTITLE3=Lobo domesticado  by Hector Tricoche
TTITLE4=Llevatela  By Jose Alberto "El Canario"
TTITLE5=El Bohemio by Luis "Perico" Ortiz
TTITLE6=Quien No se seinte patriota  by Andy Montanez
TTITLE7=No Hay Manera  by Orquesta Mulenze
TTITLE8=Juguete by Cheo Feliciano
TTITLE9=Historia de un condenado  by Paquito Guzman
EXTD=YEAR: 2002
EXTT0=
EXTT1=
EXTT2=
EXTT3=
EXTT4=
EXTT5=
EXTT6=
EXTT7=
EXTT8=
EXTT9=
PLAYORDER=
